# xmcd CD database file
#
# Track frame offsets:
#	150
#	25425
#	50250
#
# Disc length: 1003 seconds
#
# Revision: 0
# Processed by: cddbd v1.5PL3 Copyright (c) Steve Scherf et al.
# Submitted via: CDex 1.50
#
DISCID=1e03e903
DTITLE=篠原　涼子 - ダメ！
DYEAR=1995
DGENRE=JPop
TTITLE0=ダメ！
TTITLE1=Happy Hour
TTITLE2=ダメ！(Instrumental)
EXTD=YEAR: 1995
EXTT0=
EXTT1=
EXTT2=
PLAYORDER=
